# xmcd
#
# Track frame offsets:
#	150
#	13279
#	27084
#	40738
#	70367
#
# Disc length: 1328 seconds
#
# Revision: 0
# Processed by: cddbd v1.5.1PL0 Copyright (c) Steve Scherf et al.
# Submitted via: EasyCDDAExtractor 8.0.1.1
#
DISCID=3b052e05
DTITLE=Hightown Crows - Clawhammer
DYEAR=2005
DGENRE=surferbilly
TTITLE0=Slowdriver
TTITLE1=Breakdown No. 4
TTITLE2=Wailing Souls
TTITLE3=Clawhammer
TTITLE4=Lazyeye
EXTD=
EXTT0=
EXTT1=
EXTT2=
EXTT3=
EXTT4=
PLAYORDER=
